# xmcd
#
# Track frame offsets: 
#        150
#        20520
#        60300
#        90560
#        114060
#        144877
#        181995
#        220782
#        289760
#
# Disc length: 4308 seconds
#
# Revision: 0
# Processed by: cddbd v1.4PL0 Copyright (c) Steve Scherf et al.
# Submitted via: ExactAudioCopy v0.90b4
#
DISCID=6e10d209
DTITLE=Eric Clapton - Nuthin' but the Blues Disk 2
DYEAR=1994
DGENRE=Blues
TTITLE0=Early In The Morning
TTITLE1=Driftin'
TTITLE2=Cross This Town
TTITLE3=Double Trouble
TTITLE4=All Your Love
TTITLE5=Further On Up Down The Road
TTITLE6=Nobody Loves You When You're Down And Out
TTITLE7=Milk Cow Blues
TTITLE8=Bright Lights, Big City
EXTD=
EXTT0=
EXTT1=
EXTT2=
EXTT3=
EXTT4=
EXTT5=
EXTT6=
EXTT7=
EXTT8=
PLAYORDER=
